<svg width="731" height="76" viewBox="0 0 731 76" fill="none" xmlns="http://www.w3.org/2000/svg">
<path d="M0.832001 75L33.664 7.8H45.76L78.4 75H66.976L44.416 28.728C43.84 27.512 43.264 26.328 42.688 25.176C42.112 24.024 41.536 22.872 40.96 21.72C40.448 20.568 39.936 19.352 39.424 18.072C38.912 16.792 38.4 15.384 37.888 13.848L40.96 13.752C40.384 15.288 39.808 16.728 39.232 18.072C38.72 19.416 38.176 20.696 37.6 21.912C37.024 23.128 36.448 24.344 35.872 25.56C35.296 26.712 34.72 27.896 34.144 29.112L11.776 75H0.832001ZM15.136 59.256L19.264 49.272H59.104L60.736 59.256H15.136ZM108.37 75V24.6H118.354V42.936L115.474 42.36C116.498 38.904 118.194 35.768 120.562 32.952C122.93 30.072 125.682 27.8 128.818 26.136C131.954 24.408 135.186 23.544 138.514 23.544C140.882 23.544 143.186 23.8 145.426 24.312C147.666 24.824 149.426 25.528 150.706 26.424L148.114 36.6C146.706 35.768 144.946 35.128 142.834 34.68C140.786 34.168 138.866 33.912 137.074 33.912C134.194 33.912 131.602 34.392 129.298 35.352C126.994 36.312 125.01 37.592 123.346 39.192C121.746 40.728 120.498 42.456 119.602 44.376C118.77 46.232 118.354 48.12 118.354 50.04V75H108.37ZM183.274 75V24.6H193.162V75H183.274ZM188.074 12.504C185.962 12.504 184.33 11.96 183.178 10.872C182.026 9.78399 181.45 8.248 181.45 6.264C181.45 4.408 182.026 2.904 183.178 1.752C184.394 0.599998 186.026 0.0239983 188.074 0.0239983C190.186 0.0239983 191.818 0.567997 192.97 1.65599C194.122 2.744 194.698 4.28 194.698 6.264C194.698 8.12 194.09 9.624 192.874 10.776C191.722 11.928 190.122 12.504 188.074 12.504ZM235.026 75V24.6H244.914V38.808L241.266 39C242.738 36.568 244.626 34.168 246.93 31.8C249.298 29.432 252.082 27.48 255.282 25.944C258.546 24.344 262.194 23.544 266.226 23.544C271.538 23.544 275.954 24.536 279.474 26.52C283.058 28.44 285.746 31.064 287.538 34.392C289.33 37.656 290.226 41.272 290.226 45.24V75H280.338V46.872C280.338 44.056 279.57 41.592 278.034 39.48C276.562 37.368 274.578 35.736 272.082 34.584C269.65 33.368 266.93 32.76 263.922 32.76C261.17 32.76 258.61 33.272 256.242 34.296C253.938 35.256 251.922 36.536 250.194 38.136C248.53 39.672 247.218 41.336 246.258 43.128C245.362 44.92 244.914 46.648 244.914 48.312V75H240.018C238.354 75 237.106 75 236.274 75C235.442 75 235.026 75 235.026 75ZM352.785 75.96C346.705 75.96 341.393 74.84 336.849 72.6C332.369 70.36 328.913 67.256 326.481 63.288C324.049 59.32 322.833 54.808 322.833 49.752C322.833 44.632 324.113 40.12 326.673 36.216C329.297 32.248 332.913 29.144 337.521 26.904C342.129 24.664 347.409 23.544 353.361 23.544C357.073 23.544 360.529 23.992 363.729 24.888C366.929 25.72 369.713 26.84 372.081 28.248C374.449 29.656 376.273 31.16 377.553 32.76C378.897 34.36 379.569 35.928 379.569 37.464L376.689 37.656V3.96H386.577V75H376.689V61.08L378.609 61.848C378.609 63.32 377.905 64.888 376.497 66.552C375.089 68.152 373.169 69.688 370.737 71.16C368.369 72.568 365.617 73.72 362.481 74.616C359.409 75.512 356.177 75.96 352.785 75.96ZM354.993 66.84C359.345 66.84 363.185 66.104 366.513 64.632C369.841 63.096 372.433 61.048 374.289 58.488C376.145 55.864 377.073 52.952 377.073 49.752C377.073 46.552 376.145 43.672 374.289 41.112C372.433 38.552 369.841 36.536 366.513 35.064C363.185 33.528 359.345 32.76 354.993 32.76C350.705 32.76 346.897 33.528 343.569 35.064C340.241 36.536 337.617 38.552 335.697 41.112C333.841 43.672 332.913 46.552 332.913 49.752C332.913 52.952 333.841 55.864 335.697 58.488C337.617 61.048 340.241 63.096 343.569 64.632C346.897 66.104 350.705 66.84 354.993 66.84ZM449.732 75.96C443.204 75.96 437.412 74.84 432.356 72.6C427.364 70.36 423.428 67.256 420.548 63.288C417.732 59.32 416.324 54.808 416.324 49.752C416.324 44.632 417.732 40.12 420.548 36.216C423.428 32.248 427.364 29.144 432.356 26.904C437.412 24.664 443.204 23.544 449.732 23.544C456.26 23.544 462.02 24.664 467.012 26.904C472.004 29.144 475.908 32.248 478.724 36.216C481.604 40.12 483.044 44.632 483.044 49.752C483.044 54.808 481.604 59.32 478.724 63.288C475.908 67.256 472.004 70.36 467.012 72.6C462.02 74.84 456.26 75.96 449.732 75.96ZM449.732 66.936C454.084 66.936 458.02 66.2 461.54 64.728C465.124 63.256 467.94 61.24 469.988 58.68C472.1 56.056 473.092 53.08 472.964 49.752C473.092 46.36 472.1 43.384 469.988 40.824C467.94 38.264 465.124 36.248 461.54 34.776C458.02 33.304 454.084 32.568 449.732 32.568C445.38 32.568 441.412 33.304 437.828 34.776C434.308 36.248 431.492 38.264 429.38 40.824C427.332 43.384 426.34 46.36 426.404 49.752C426.34 53.08 427.332 56.056 429.38 58.68C431.492 61.24 434.308 63.256 437.828 64.728C441.412 66.2 445.38 66.936 449.732 66.936ZM514.731 75V24.6H524.715V39.192L520.971 38.424C521.547 37.016 522.571 35.48 524.043 33.816C525.515 32.088 527.403 30.488 529.707 29.016C532.075 27.48 534.795 26.232 537.867 25.272C540.939 24.248 544.331 23.736 548.043 23.736C551.563 23.736 554.795 24.312 557.739 25.464C560.683 26.616 563.083 28.376 564.939 30.744C566.795 33.048 567.851 35.992 568.107 39.576L564.651 38.808L565.323 37.176C566.155 36.024 567.371 34.68 568.971 33.144C570.571 31.608 572.491 30.136 574.731 28.728C577.035 27.32 579.563 26.136 582.315 25.176C585.131 24.216 588.107 23.736 591.243 23.736C596.811 23.736 601.163 24.728 604.299 26.712C607.499 28.696 609.771 31.352 611.115 34.68C612.459 38.008 613.131 41.688 613.131 45.72V75H603.147V47.256C603.147 44.44 602.699 41.944 601.803 39.768C600.907 37.592 599.467 35.896 597.483 34.68C595.499 33.464 592.907 32.856 589.707 32.856C586.763 32.856 584.011 33.336 581.451 34.296C578.955 35.192 576.747 36.472 574.827 38.136C572.907 39.736 571.403 41.624 570.315 43.8C569.291 45.912 568.779 48.184 568.779 50.616V75H558.795V47.064C558.795 44.248 558.251 41.784 557.163 39.672C556.139 37.56 554.475 35.896 552.171 34.68C549.867 33.464 546.859 32.856 543.147 32.856C540.459 32.856 537.995 33.368 535.755 34.392C533.515 35.352 531.563 36.632 529.899 38.232C528.235 39.832 526.955 41.56 526.059 43.416C525.163 45.208 524.715 46.904 524.715 48.504V75H514.731ZM638.841 37.56L634.233 32.28C637.305 30.488 639.801 28.76 641.721 27.096C643.705 25.368 644.697 23.8 644.697 22.392C644.697 21.304 644.313 20.408 643.545 19.704C642.777 19 641.881 18.36 640.857 17.784C639.513 16.952 638.169 16.056 636.825 15.096C635.481 14.136 634.809 12.728 634.809 10.872C634.809 8.504 635.641 6.776 637.305 5.68799C639.033 4.536 641.081 3.96 643.449 3.96C645.625 3.96 647.705 4.568 649.689 5.784C651.673 7 653.273 8.632 654.489 10.68C655.769 12.728 656.409 15.032 656.409 17.592C656.409 19.512 655.897 21.464 654.873 23.448C653.849 25.368 652.473 27.256 650.745 29.112C649.081 30.904 647.193 32.536 645.081 34.008C643.033 35.416 640.953 36.6 638.841 37.56ZM705.159 75.96C699.271 75.96 693.863 75.224 688.935 73.752C684.007 72.28 679.879 69.784 676.551 66.264L683.271 60.024C685.831 62.392 688.871 64.28 692.391 65.688C695.911 67.032 699.783 67.704 704.007 67.704C705.671 67.704 707.399 67.64 709.191 67.512C711.047 67.32 712.807 67 714.471 66.552C716.135 66.104 717.479 65.464 718.503 64.632C719.527 63.8 720.039 62.712 720.039 61.368C720.039 59.192 718.215 57.624 714.567 56.664C712.711 56.152 710.727 55.704 708.615 55.32C706.503 54.872 704.263 54.488 701.895 54.168C697.991 53.464 694.375 52.728 691.047 51.96C687.783 51.128 685.031 49.944 682.791 48.408C681.191 47.256 679.943 45.848 679.047 44.184C678.151 42.52 677.703 40.504 677.703 38.136C677.703 35.896 678.343 33.88 679.623 32.088C680.967 30.296 682.791 28.76 685.095 27.48C687.399 26.2 690.087 25.24 693.159 24.6C696.295 23.896 699.687 23.544 703.335 23.544C706.279 23.544 709.383 23.832 712.647 24.408C715.975 24.92 719.143 25.784 722.151 27C725.159 28.152 727.687 29.688 729.735 31.608L724.551 38.424C722.759 37.144 720.647 35.992 718.215 34.968C715.783 33.944 713.287 33.144 710.727 32.568C708.167 31.992 705.703 31.704 703.335 31.704C701.735 31.704 700.007 31.8 698.151 31.992C696.359 32.12 694.663 32.408 693.063 32.856C691.463 33.304 690.151 33.944 689.127 34.776C688.103 35.544 687.591 36.536 687.591 37.752C687.591 38.52 687.815 39.224 688.263 39.864C688.775 40.44 689.447 40.984 690.279 41.496C691.879 42.456 693.959 43.256 696.519 43.896C699.143 44.472 701.991 45.016 705.063 45.528C708.583 46.04 712.039 46.712 715.431 47.544C718.823 48.312 721.735 49.4 724.167 50.808C725.959 51.832 727.367 53.048 728.391 54.456C729.479 55.864 730.023 57.56 730.023 59.544C730.023 63.128 728.903 66.136 726.663 68.568C724.423 71 721.415 72.856 717.639 74.136C713.927 75.352 709.767 75.96 705.159 75.96Z" fill="white"/>
</svg>
